<svg width="502" height="120" viewBox="0 0 502 120" fill="none" xmlns="http://www.w3.org/2000/svg">
<path d="M186.94 93.1V52.24C187.54 52 188.845 51.73 190.855 51.43C192.865 51.13 195.25 50.98 198.01 50.98C200.59 50.98 202.735 51.295 204.445 51.925C206.155 52.555 207.535 53.59 208.585 55.03C209.635 56.47 210.385 58.33 210.835 60.61C211.285 62.89 211.51 65.68 211.51 68.98V93.1H217.36V67.09C217.36 63.91 217.06 61 216.46 58.36C215.86 55.72 214.855 53.455 213.445 51.565C212.035 49.675 210.145 48.22 207.775 47.2C205.405 46.18 202.45 45.67 198.91 45.67C194.65 45.67 191.05 45.97 188.11 46.57C185.17 47.17 182.83 47.71 181.09 48.19V93.1H186.94ZM252.07 94.09C255.19 94.09 257.905 93.76 260.215 93.1C262.525 92.44 264.1 91.87 264.94 91.39L263.86 86.35C263.02 86.77 261.67 87.28 259.81 87.88C257.95 88.48 255.43 88.78 252.25 88.78C246.49 88.78 242.29 87.25 239.65 84.19C237.01 81.13 235.6 76.75 235.42 71.05H268.09C268.15 70.63 268.195 70.18 268.225 69.7C268.255 69.22 268.27 68.74 268.27 68.26C268.27 60.52 266.575 54.79 263.185 51.07C259.795 47.35 255.25 45.49 249.55 45.49C246.97 45.49 244.465 45.985 242.035 46.975C239.605 47.965 237.445 49.48 235.555 51.52C233.665 53.56 232.135 56.095 230.965 59.125C229.795 62.155 229.21 65.71 229.21 69.79C229.21 73.33 229.63 76.585 230.47 79.555C231.31 82.525 232.66 85.09 234.52 87.25C236.38 89.41 238.75 91.09 241.63 92.29C244.51 93.49 247.99 94.09 252.07 94.09ZM262.24 66.1H235.6C235.72 64.06 236.125 62.11 236.815 60.25C237.505 58.39 238.465 56.755 239.695 55.345C240.925 53.935 242.365 52.81 244.015 51.97C245.665 51.13 247.54 50.71 249.64 50.71C253.6 50.71 256.66 52.06 258.82 54.76C260.98 57.46 262.12 61.24 262.24 66.1ZM281.83 93.1C282.55 91.78 283.42 90.265 284.44 88.555C285.46 86.845 286.585 85.06 287.815 83.2C289.045 81.34 290.32 79.45 291.64 77.53C292.96 75.61 294.28 73.78 295.6 72.04C296.86 73.78 298.165 75.61 299.515 77.53C300.865 79.45 302.155 81.34 303.385 83.2C304.615 85.06 305.74 86.845 306.76 88.555C307.78 90.265 308.65 91.78 309.37 93.1H315.67C314.53 90.88 313.285 88.63 311.935 86.35C310.585 84.07 309.19 81.865 307.75 79.735C306.31 77.605 304.87 75.55 303.43 73.57C301.99 71.59 300.64 69.76 299.38 68.08L314.23 46.57H307.84L295.6 64.39L283.54 46.57H276.7L291.82 68.44C289 72.28 286.24 76.195 283.54 80.185C280.84 84.175 278.26 88.48 275.8 93.1H281.83ZM340.39 94.09C342.85 94.09 345.13 93.745 347.23 93.055C349.33 92.365 350.8 91.75 351.64 91.21L350.2 86.35C349.36 86.83 348.19 87.355 346.69 87.925C345.19 88.495 343.21 88.78 340.75 88.78C339.31 88.78 337.99 88.63 336.79 88.33C335.59 88.03 334.57 87.43 333.73 86.53C332.89 85.63 332.245 84.355 331.795 82.705C331.345 81.055 331.12 78.91 331.12 76.27V51.52H349.66V46.57H331.12V31.81L325.27 32.89V75.73C325.27 78.85 325.51 81.55 325.99 83.83C326.47 86.11 327.295 88.015 328.465 89.545C329.635 91.075 331.195 92.215 333.145 92.965C335.095 93.715 337.51 94.09 340.39 94.09ZM372.76 69.88V64.21H352.42V69.88H372.76ZM385.6 37.03C386.8 37.03 387.82 36.625 388.66 35.815C389.5 35.005 389.92 33.91 389.92 32.53C389.92 31.15 389.5 30.055 388.66 29.245C387.82 28.435 386.8 28.03 385.6 28.03C384.4 28.03 383.38 28.435 382.54 29.245C381.7 30.055 381.28 31.15 381.28 32.53C381.28 33.91 381.7 35.005 382.54 35.815C383.38 36.625 384.4 37.03 385.6 37.03ZM388.57 93.1V46.57H382.72V93.1H388.57ZM409.6 93.1V52.24C410.2 52 411.505 51.73 413.515 51.43C415.525 51.13 417.91 50.98 420.67 50.98C423.25 50.98 425.395 51.295 427.105 51.925C428.815 52.555 430.195 53.59 431.245 55.03C432.295 56.47 433.045 58.33 433.495 60.61C433.945 62.89 434.17 65.68 434.17 68.98V93.1H440.02V67.09C440.02 63.91 439.72 61 439.12 58.36C438.52 55.72 437.515 53.455 436.105 51.565C434.695 49.675 432.805 48.22 430.435 47.2C428.065 46.18 425.11 45.67 421.57 45.67C417.31 45.67 413.71 45.97 410.77 46.57C407.83 47.17 405.49 47.71 403.75 48.19V93.1H409.6ZM469.42 94.09C471.88 94.09 474.16 93.745 476.26 93.055C478.36 92.365 479.83 91.75 480.67 91.21L479.23 86.35C478.39 86.83 477.22 87.355 475.72 87.925C474.22 88.495 472.24 88.78 469.78 88.78C468.34 88.78 467.02 88.63 465.82 88.33C464.62 88.03 463.6 87.43 462.76 86.53C461.92 85.63 461.275 84.355 460.825 82.705C460.375 81.055 460.15 78.91 460.15 76.27V51.52H478.69V46.57H460.15V31.81L454.3 32.89V75.73C454.3 78.85 454.54 81.55 455.02 83.83C455.5 86.11 456.325 88.015 457.495 89.545C458.665 91.075 460.225 92.215 462.175 92.965C464.125 93.715 466.54 94.09 469.42 94.09ZM500.98 93.91L501.79 89.05C500.59 88.87 499.555 88.66 498.685 88.42C497.815 88.18 497.11 87.805 496.57 87.295C496.03 86.785 495.625 86.095 495.355 85.225C495.085 84.355 494.95 83.2 494.95 81.76V23.26L489.1 24.34V81.94C489.1 84.16 489.355 86.005 489.865 87.475C490.375 88.945 491.125 90.145 492.115 91.075C493.105 92.005 494.335 92.695 495.805 93.145C497.275 93.595 499 93.85 500.98 93.91Z" fill="white"/>
<path d="M98.9668 101.258C97.7078 102.458 96.3888 103.597 95.0099 104.677C71.5706 123.153 37.8474 120.4 17.7139 98.3659C-2.41949 76.3319 -2.13536 42.4895 18.3652 20.7969C38.8657 -0.895794 72.6304 -3.08221 95.7562 15.7855C118.882 34.6531 123.569 67.6781 106.444 92.1247" stroke="#70D2FF" stroke-width="5.4"/>
<path d="M98.3371 104.557C99.8271 104.557 101.035 103.348 101.035 101.858C101.035 100.368 99.8271 99.1595 98.3371 99.1595C96.8471 99.1595 95.6392 100.368 95.6392 101.858C95.6392 103.348 96.8471 104.557 98.3371 104.557Z" fill="#70D2FF"/>
<path d="M11.6445 31.5454C27.8887 29.5713 43.9553 28.597 59.8443 28.6223C75.7333 28.6477 90.9925 29.672 105.622 31.6953" stroke="#70D2FF" stroke-width="5.4" stroke-linecap="square"/>
<path d="M60.2066 117C75.6862 117 88.2349 91.4267 88.2349 59.8804C88.2349 28.3341 75.6862 2.76074 60.2066 2.76074C44.7269 2.76074 32.1782 28.3341 32.1782 59.8804C32.1782 91.4267 44.7269 117 60.2066 117Z" stroke="#70D2FF" stroke-width="5.4"/>
<path d="M14.4922 91.3636C29.4223 93.3636 44.4933 94.3636 59.705 94.3636C74.9167 94.3636 90.2223 93.3636 105.622 91.3636" stroke="#70D2FF" stroke-width="5.4" stroke-linecap="square"/>
<path d="M3.80859 61.8293H116.263" stroke="#70D2FF" stroke-width="5.4" stroke-linecap="square"/>
</svg>
