<svg width="800" height="334" viewBox="0 0 800 334" fill="none" xmlns="http://www.w3.org/2000/svg">
<path d="M56.2222 131.257C56.2222 122.59 63.3333 119.257 75.1111 119.257C92 119.257 113.333 124.368 130.222 133.479V81.2569C111.778 73.9236 93.5556 71.0347 75.1111 71.0347C30 71.0347 0 94.5903 0 133.924C0 195.257 84.4444 185.479 84.4444 211.924C84.4444 222.146 75.5556 225.479 63.1111 225.479C44.6667 225.479 21.1111 217.924 2.44444 207.701V260.59C23.1111 269.479 44 273.257 63.1111 273.257C109.333 273.257 141.111 250.368 141.111 210.59C140.889 144.368 56.2222 156.146 56.2222 131.257ZM206.444 26.5903L152.222 38.1458L152 216.146C152 249.035 176.667 273.257 209.556 273.257C227.778 273.257 241.111 269.924 248.444 265.924V220.813C241.333 223.701 206.222 233.924 206.222 201.035V122.146H248.444V74.8125H206.222L206.444 26.5903ZM317.556 91.2569L314 74.8125H266V269.257H321.556V137.479C334.667 120.368 356.889 123.479 363.778 125.924V74.8125C356.667 72.1458 330.667 67.2569 317.556 91.2569ZM377.333 74.8125H433.111V269.257H377.333V74.8125ZM377.333 57.9236L433.111 45.9236V0.8125L377.333 12.5903V57.9236ZM549.111 71.0347C527.333 71.0347 513.333 81.2569 505.556 88.3681L502.667 74.5903H453.778V333.701L509.333 321.924L509.556 259.035C517.556 264.813 529.333 273.035 548.889 273.035C588.667 273.035 624.889 241.035 624.889 170.59C624.667 106.146 588 71.0347 549.111 71.0347ZM535.778 224.146C522.667 224.146 514.889 219.479 509.556 213.701L509.333 131.257C515.111 124.812 523.111 120.368 535.778 120.368C556 120.368 570 143.035 570 172.146C570 201.924 556.222 224.146 535.778 224.146ZM800 172.813C800 115.924 772.444 71.0347 719.778 71.0347C666.889 71.0347 634.889 115.924 634.889 172.368C634.889 239.257 672.667 273.035 726.889 273.035C753.333 273.035 773.333 267.035 788.444 258.59V214.146C773.333 221.701 756 226.368 734 226.368C712.444 226.368 693.333 218.813 690.889 192.59H799.556C799.556 189.701 800 178.146 800 172.813ZM690.222 151.701C690.222 126.59 705.556 116.146 719.556 116.146C733.111 116.146 747.556 126.59 747.556 151.701H690.222Z" fill="#6772E5"/>
</svg>
