<svg width="127" height="126" viewBox="0 0 127 126" fill="none" xmlns="http://www.w3.org/2000/svg">
<path d="M42.9515 88.9323C42.6024 83.1419 51.1264 79.9926 55.9775 88.1477C62.0695 98.3891 70.1912 110.201 74.1633 117.462C76.3189 121.402 74.4926 124.739 70.0327 125.27C60.8695 126.36 45.1924 126.194 44.7216 118.365C44.0544 107.267 43.3006 94.7226 42.9515 88.9323Z" fill="#404040"/>
<path d="M68.3325 95.4435C63.9906 91.5967 67.7897 83.3417 76.9869 85.6765C88.5368 88.6085 102.632 91.2152 110.576 93.5394C114.886 94.8006 115.955 98.4514 113.177 101.981C107.47 109.232 96.2696 120.202 90.3998 115C82.0795 107.626 72.6745 99.2903 68.3325 95.4435Z" fill="#404040"/>
<path d="M88.976 84.0229C83.1783 84.2137 80.2628 75.6068 88.5474 70.9803C98.9513 65.1702 110.98 57.3741 118.347 53.6017C122.345 51.5545 125.631 53.4712 126.039 57.944C126.879 67.1336 126.285 82.8003 118.446 83.0571C107.334 83.4211 94.7737 83.832 88.976 84.0229Z" fill="#404040"/>
<path d="M95.0461 58.4337C91.0731 62.6604 82.9335 58.6199 85.5381 49.4955C88.809 38.0369 91.8297 24.0244 94.3869 16.1528C95.7745 11.8811 99.4552 10.9202 102.901 13.8009C109.981 19.7193 120.617 31.2379 115.244 36.9519C107.628 45.0515 99.0191 54.2069 95.0461 58.4337Z" fill="#404040"/>
<path d="M83.6636 36.9638C83.9691 42.7566 75.4215 45.8417 70.632 37.6503C64.6173 27.3634 56.5847 15.491 52.6673 8.20024C50.5414 4.24384 52.3927 0.920705 56.8565 0.423755C66.0277 -0.597266 81.7031 -0.313989 82.1149 7.51841C82.6987 18.6208 83.358 31.171 83.6636 36.9638Z" fill="#404040"/>
<path d="M57.9406 30.181C62.3017 34.006 58.5439 42.28 49.3352 39.9912C37.7707 37.1169 23.6625 34.5806 15.7074 32.2961C11.3906 31.0564 10.3035 27.411 13.0637 23.8679C18.7348 16.5884 29.8802 5.56214 35.7759 10.7349C44.133 18.0671 53.5795 26.356 57.9406 30.181Z" fill="#404040"/>
<path d="M37.1033 43.5702C42.8981 43.3066 45.9214 51.8762 37.6956 56.6064C27.3655 62.5467 15.4354 70.4933 8.11654 74.3579C4.14488 76.4551 0.835216 74.5798 0.370532 70.1126C-0.584198 60.9342 -0.187669 45.2613 7.6475 44.9061C18.7538 44.4026 31.3084 43.8339 37.1033 43.5702Z" fill="#404040"/>
<path d="M31.0121 68.109C34.939 63.8395 43.1219 67.7917 40.6162 76.9438C37.4696 88.4371 34.6007 102.481 32.129 110.38C30.7876 114.667 27.1176 115.667 23.6407 112.824C16.4971 106.983 5.73724 95.5801 11.0478 89.8082C18.5754 81.6266 27.0851 72.3785 31.0121 68.109Z" fill="#404040"/>
<path fill-rule="evenodd" clip-rule="evenodd" d="M83.6637 36.9638C83.9692 42.7566 75.4217 45.8417 70.6322 37.6503C67.9067 32.9889 64.7669 28.002 61.7834 23.2634C61.7313 23.1806 61.6792 23.0979 61.6272 23.0153C62.0037 23.005 62.3815 22.9998 62.7605 22.9998C70.2211 22.9998 77.2118 25.0119 83.2194 28.5232C83.3997 31.9515 83.5544 34.8905 83.6637 36.9638ZM89.7765 33.2913C88.4272 38.6825 87.008 44.3468 85.5383 49.4955C82.9337 58.6199 91.0733 62.6604 95.0462 58.4337C96.6079 56.7723 98.8859 54.3493 101.538 51.5283C99.3245 44.4108 95.2049 38.1329 89.7765 33.2913ZM103.343 62.2757C103.264 62.3229 103.186 62.3702 103.107 62.4175L103.107 62.4177L103.107 62.4178C98.31 65.307 93.262 68.3475 88.5476 70.9803C80.263 75.6068 83.1784 84.2137 88.9762 84.0229C91.1735 83.9505 94.3422 83.8466 98.0353 83.7256C101.426 77.7941 103.364 70.925 103.364 63.6033C103.364 63.1591 103.357 62.7165 103.343 62.2757ZM93.9685 89.5802C93.7949 89.5421 93.621 89.504 93.4468 89.4659L93.4465 89.4658C87.9768 88.2668 82.2206 87.005 76.987 85.6765C67.7898 83.3417 63.9908 91.5967 68.3327 95.4435C70.1135 97.0212 72.7459 99.354 75.8059 102.066C82.9663 99.638 89.2299 95.2668 93.9685 89.5802ZM65.9677 104.082C65.626 103.548 65.2813 103.009 64.9345 102.468L64.9344 102.468C61.9153 97.7515 58.7381 92.7884 55.9777 88.1477C51.1266 79.9926 42.6025 83.1419 42.9516 88.9323C43.1007 91.4038 43.3234 95.1059 43.5817 99.4009C49.2934 102.467 55.8238 104.207 62.7605 104.207C63.8399 104.207 64.9095 104.165 65.9677 104.082ZM36.271 94.3769C36.3541 94.0293 36.4374 93.6803 36.521 93.3301C37.8217 87.8836 39.1905 82.1518 40.6164 76.9438C43.1221 67.7917 34.9392 63.8395 31.0122 68.109C29.3529 69.9131 26.8753 72.6061 23.9994 75.7319C26.2886 83.0556 30.5963 89.4877 36.271 94.3769ZM22.2255 65.9828C22.564 65.7732 22.904 65.5625 23.2452 65.3511L23.2453 65.3511C28.0054 62.4019 33.0148 59.2982 37.6958 56.6064C45.9216 51.8762 42.8983 43.3066 37.1034 43.5702C34.7373 43.6779 31.2442 43.8364 27.1828 44.0206C23.9797 49.8275 22.157 56.5026 22.157 63.6033C22.157 64.4021 22.18 65.1954 22.2255 65.9828ZM32.7438 36.2599C32.7815 36.2679 32.8191 36.276 32.8568 36.284C38.3325 37.4557 44.0951 38.6887 49.3353 39.9912C58.5441 42.28 62.3018 34.006 57.9408 30.181C56.3712 28.8043 54.1428 26.8494 51.5436 24.569C44.2177 26.6703 37.7401 30.7783 32.7438 36.2599Z" fill="#D9D9D9" fill-opacity="0.15"/>
</svg>
